<svg id="Layer_1" data-name="Layer 1" xmlns="http://www.w3.org/2000/svg" viewBox="0 0 154.43 36.55"><defs><style>.cls-1{fill:#99ca3f;}.cls-2{fill:#ec2036;}.cls-3{fill:#f15d24;}.cls-4{fill:#eb4095;}.cls-5{fill:#fcc117;}.cls-6{fill:#00aaac;}.cls-7{fill:#4866b0;}.cls-8{fill:#fff;}.cls-9{fill:#231f20;}</style></defs><path class="cls-1" d="M13.61,22.76,11.47,24.9,10,24.52a1.48,1.48,0,0,0-1.29.34L6.54,27.05a1.5,1.5,0,0,0-.35,1.3l.8,3a1.48,1.48,0,0,0,1,.94l3,.8a1.45,1.45,0,0,0,1.29-.34l2.19-2.19a1.49,1.49,0,0,0,.35-1.3L14.15,27l2.09-2.09-1.68-1A2.45,2.45,0,0,1,13.61,22.76Z" transform="translate(-2 -0.73)"/><path class="cls-2" d="M21.42,12.05l.37.21V8.91l1.84-1.06a1.5,1.5,0,0,0,.66-1.16V3.59a1.52,1.52,0,0,0-.66-1.16L20.94.89a1.44,1.44,0,0,0-1.34,0L16.93,2.43a1.51,1.51,0,0,0-.68,1.16v3.1a1.5,1.5,0,0,0,.68,1.16l1.5.87v3.74l.7-.41A2.56,2.56,0,0,1,21.42,12.05Z" transform="translate(-2 -0.73)"/><path class="cls-3" d="M17.08,13.23,14.3,10.46l.46-1.71a1.5,1.5,0,0,0-.35-1.3L12.22,5.26a1.48,1.48,0,0,0-1.29-.34l-3,.8a1.48,1.48,0,0,0-1,1l-.8,3A1.49,1.49,0,0,0,6.54,11l2.19,2.19a1.48,1.48,0,0,0,1.29.35L12,13,14.13,15a2,2,0,0,1,.43-.35Z" transform="translate(-2 -0.73)"/><path class="cls-4" d="M26.25,14.88l2-2,2.28.62a1.48,1.48,0,0,0,1.29-.35L34,11a1.49,1.49,0,0,0,.35-1.3l-.8-3a1.48,1.48,0,0,0-1-1l-3-.8a1.48,1.48,0,0,0-1.29.34L26.14,7.45a1.49,1.49,0,0,0-.35,1.3l.39,1.44-2.92,2.92L26,14.69A1,1,0,0,1,26.25,14.88Z" transform="translate(-2 -0.73)"/><path class="cls-5" d="M9.88,17l-.76-1.31A1.47,1.47,0,0,0,8,15H4.87a1.47,1.47,0,0,0-1.16.67L2.16,18.33a1.5,1.5,0,0,0,0,1.34l1.55,2.68A1.47,1.47,0,0,0,4.87,23H8a1.47,1.47,0,0,0,1.16-.67l1.17-2h3.13V17Z" transform="translate(-2 -0.73)"/><path class="cls-6" d="M19.13,26.56l-.7-.41v3.13l-1.5.87a1.5,1.5,0,0,0-.68,1.16V34.4a1.51,1.51,0,0,0,.68,1.17l2.67,1.54a1.44,1.44,0,0,0,1.34,0l2.69-1.54a1.52,1.52,0,0,0,.66-1.17V31.31a1.5,1.5,0,0,0-.66-1.16l-1.84-1.06V26.34l-.37.22A2.56,2.56,0,0,1,19.13,26.56Z" transform="translate(-2 -0.73)"/><path class="cls-7" d="M26,23.92,24.09,25l2.24,2.24-.54,2a1.49,1.49,0,0,0,.35,1.3l2.19,2.19a1.48,1.48,0,0,0,1.29.34l3-.8a1.48,1.48,0,0,0,1-.94l.8-3a1.5,1.5,0,0,0-.35-1.3l-2.19-2.19a1.48,1.48,0,0,0-1.29-.34L28.82,25l-2-2A2.4,2.4,0,0,1,26,23.92Z" transform="translate(-2 -0.73)"/><path class="cls-3" d="M38.39,18.33l-1.55-2.68A1.49,1.49,0,0,0,35.68,15H32.59a1.5,1.5,0,0,0-1.17.67L30.67,17H27.13v3.36h3.13l1.16,2a1.5,1.5,0,0,0,1.17.67h3.09a1.49,1.49,0,0,0,1.16-.67l1.55-2.68A1.5,1.5,0,0,0,38.39,18.33Z" transform="translate(-2 -0.73)"/><path class="cls-3" d="M24.17,20.8a1.45,1.45,0,0,1-.64,1.13l-2.6,1.5a1.44,1.44,0,0,1-1.31,0L17,21.93a1.45,1.45,0,0,1-.64-1.13v-3A1.44,1.44,0,0,1,17,16.68l2.6-1.5a1.44,1.44,0,0,1,1.31,0l2.6,1.5a1.44,1.44,0,0,1,.64,1.12Z" transform="translate(-2 -0.73)"/><path class="cls-8" d="M18.12,3.76l1.62-.94A.65.65,0,0,1,20,2.75l-.18-.11a.74.74,0,0,0-.65,0l-1.3.75a.74.74,0,0,0-.33.57v1.5a.69.69,0,0,0,.22.47V4.46A.88.88,0,0,1,18.12,3.76Z" transform="translate(-2 -0.73)"/><path class="cls-8" d="M22.77,34.15l-1.63.94a.66.66,0,0,1-.21.08l.18.1a.68.68,0,0,0,.65,0l1.3-.75a.71.71,0,0,0,.33-.56v-1.5a.71.71,0,0,0-.22-.48v1.47A.88.88,0,0,1,22.77,34.15Z" transform="translate(-2 -0.73)"/><path class="cls-8" d="M5.24,21.28,4.3,19.66a1,1,0,0,1-.07-.21l-.1.18a.68.68,0,0,0,0,.65l.74,1.3a.73.73,0,0,0,.57.32h1.5a.77.77,0,0,0,.48-.21H5.94A.9.9,0,0,1,5.24,21.28Z" transform="translate(-2 -0.73)"/><path class="cls-8" d="M35.64,16.63l.94,1.63a1,1,0,0,1,.07.21l.1-.18a.68.68,0,0,0,0-.65L36,16.34a.71.71,0,0,0-.56-.33h-1.5a.73.73,0,0,0-.47.21h1.46A.92.92,0,0,1,35.64,16.63Z" transform="translate(-2 -0.73)"/><path class="cls-8" d="M11.34,31.35l-1.82-.48a1.24,1.24,0,0,1-.2-.1l0,.2a.74.74,0,0,0,.47.46l1.45.39a.76.76,0,0,0,.63-.17L13,30.59a.76.76,0,0,0,.18-.49l-1,1A.89.89,0,0,1,11.34,31.35Z" transform="translate(-2 -0.73)"/><path class="cls-8" d="M29.54,6.57l1.81.48a.75.75,0,0,1,.2.1L31.5,7A.7.7,0,0,0,31,6.49L29.59,6.1a.73.73,0,0,0-.63.17L27.9,7.33a.74.74,0,0,0-.19.49l1.05-1.05A.91.91,0,0,1,29.54,6.57Z" transform="translate(-2 -0.73)"/><path class="cls-8" d="M32.83,28.06l-.49,1.81a.52.52,0,0,1-.09.2l.2-.05a.7.7,0,0,0,.46-.46l.39-1.45a.76.76,0,0,0-.17-.63l-1.06-1.06a.8.8,0,0,0-.49-.19l1,1.05A.89.89,0,0,1,32.83,28.06Z" transform="translate(-2 -0.73)"/><path class="cls-8" d="M8.05,9.86,8.53,8a1.24,1.24,0,0,1,.1-.2l-.2.06A.69.69,0,0,0,8,8.35L7.58,9.81a.7.7,0,0,0,.17.62L8.81,11.5a.76.76,0,0,0,.49.18l-1-1A.89.89,0,0,1,8.05,9.86Z" transform="translate(-2 -0.73)"/><path class="cls-9" d="M67.5,18.9a7.16,7.16,0,0,0-1.59-2.32A7.59,7.59,0,0,0,63.58,15a7.41,7.41,0,0,0-6.2.23,7.44,7.44,0,0,0-2.29,1.83,7.32,7.32,0,0,0-2.26-1.83,7.41,7.41,0,0,0-6.2-.23,7.34,7.34,0,0,0-3.91,3.89,7.16,7.16,0,0,0-.57,2.86v7.36h3.44V21.76A3.83,3.83,0,0,1,46.73,19a3.78,3.78,0,0,1,2.74-1.14,3.94,3.94,0,0,1,1.53.3,3.72,3.72,0,0,1,1.25.84,3.83,3.83,0,0,1,1.14,2.74v7.36h3.44V21.76a3.76,3.76,0,0,1,.3-1.5A3.94,3.94,0,0,1,58,19a3.83,3.83,0,0,1,2.75-1.14,3.89,3.89,0,0,1,1.52.3,3.72,3.72,0,0,1,1.25.84,3.83,3.83,0,0,1,1.14,2.74v7.36h3.44V21.76A7.16,7.16,0,0,0,67.5,18.9Z" transform="translate(-2 -0.73)"/><path class="cls-9" d="M83.7,18.9A7.4,7.4,0,0,0,79.81,15a7.43,7.43,0,0,0-5.71,0,7.57,7.57,0,0,0-2.35,1.57,7.33,7.33,0,0,0-1.59,8,7.4,7.4,0,0,0,3.94,3.94,7.2,7.2,0,0,0,2.84.57h7.33V21.76A7.16,7.16,0,0,0,83.7,18.9Zm-2.87,2.86v3.92H76.94a3.89,3.89,0,0,1-1.52-.3,3.91,3.91,0,0,1-2.09-2.09,3.94,3.94,0,0,1-.3-1.53,3.9,3.9,0,0,1,2.39-3.58,3.89,3.89,0,0,1,1.52-.3,3.88,3.88,0,0,1,3.89,3.88Z" transform="translate(-2 -0.73)"/><path class="cls-9" d="M100.07,18.93a7.29,7.29,0,0,0-1.58-2.32A7.64,7.64,0,0,0,96.15,15a7.44,7.44,0,0,0-5.71,0,7.34,7.34,0,0,0-3.91,3.89A7.19,7.19,0,0,0,86,21.79v7.36H89.4V21.79a3.76,3.76,0,0,1,.3-1.5,4.12,4.12,0,0,1,.84-1.24,3.83,3.83,0,0,1,2.75-1.14,3.88,3.88,0,0,1,3.61,2.38,3.76,3.76,0,0,1,.3,1.5v7.36h3.45V21.79A7.2,7.2,0,0,0,100.07,18.93Z" transform="translate(-2 -0.73)"/><rect class="cls-9" x="100.12" y="13.71" width="3.41" height="14.69"/><path class="cls-9" d="M111,14.63a3.89,3.89,0,0,1,.84-1.24,3.85,3.85,0,0,1,1.25-.83,3.89,3.89,0,0,1,1.52-.3h1.71V8.81h-1.71a7.21,7.21,0,0,0-2.84.58A7.4,7.4,0,0,0,109.38,11a7.14,7.14,0,0,0-2.16,5.18v13h3.44V20.69h5.62V17.25h-5.62V16.14A3.84,3.84,0,0,1,111,14.63Z" transform="translate(-2 -0.73)"/><path class="cls-9" d="M127.48,24.59a3.83,3.83,0,0,1-2.15,1.11,3.74,3.74,0,0,1-1.88-.18l7.67-7.66-1.21-1.2A7,7,0,0,0,127.47,15,7.32,7.32,0,0,0,122,15a7.23,7.23,0,0,0-2.44,1.62,7.1,7.1,0,0,0-1.6,2.42,7.53,7.53,0,0,0,0,5.5,6.84,6.84,0,0,0,1.6,2.45,7.49,7.49,0,0,0,2.39,1.6,7.36,7.36,0,0,0,5.63,0,7.34,7.34,0,0,0,2.38-1.6l1.21-1.21-2.44-2.43Zm-2.82-6.66a3.88,3.88,0,0,1,1.31.23l-.88.87-1.66,1.64L121,23.09a3.87,3.87,0,0,1-.21-1.26A3.73,3.73,0,0,1,122,19.06h0A3.68,3.68,0,0,1,124.09,18,3.64,3.64,0,0,1,124.66,17.93Z" transform="translate(-2 -0.73)"/><path class="cls-9" d="M146.12,22.94a3.89,3.89,0,0,0-.91-1.33,4.24,4.24,0,0,0-1.34-.89,4.11,4.11,0,0,0-1.64-.33h-5.62a1.33,1.33,0,0,1-1-.42,1.42,1.42,0,0,1-.41-1,1.37,1.37,0,0,1,.41-1,1.35,1.35,0,0,1,1-.4h8.46V14.77h-8.46a4.11,4.11,0,0,0-1.64.33,4,4,0,0,0-1.33.89,4.21,4.21,0,0,0-.89,1.32,4.36,4.36,0,0,0,0,3.28,4.59,4.59,0,0,0,.89,1.35,4.22,4.22,0,0,0,1.33.9,4.11,4.11,0,0,0,1.64.33h5.62a1.4,1.4,0,0,1,1.44,1.4,1.43,1.43,0,0,1-.41,1,1.39,1.39,0,0,1-1,.4H133.8v2.78h8.43a4.11,4.11,0,0,0,1.64-.33,4.22,4.22,0,0,0,2.25-2.25,4.22,4.22,0,0,0,0-3.27Z" transform="translate(-2 -0.73)"/><path class="cls-9" d="M156.43,20.69V17.25h-5.62V8.81h-3.45v13a7.22,7.22,0,0,0,.58,2.85,7.4,7.4,0,0,0,3.94,3.94,7.17,7.17,0,0,0,2.84.57h1.71V25.68h-1.71a3.92,3.92,0,0,1-2.78-1.14,3.85,3.85,0,0,1-.83-1.25,3.94,3.94,0,0,1-.3-1.53V20.69Z" transform="translate(-2 -0.73)"/><circle class="cls-3" cx="101.82" cy="10.18" r="2.08"/></svg>